<?xml version="1.0" encoding="utf-8" standalone="no"?>
<!DOCTYPE svg PUBLIC "-//W3C//DTD SVG 1.1//EN"
  "http://www.w3.org/Graphics/SVG/1.1/DTD/svg11.dtd">
<svg xmlns:xlink="http://www.w3.org/1999/xlink" width="794.88pt" height="184.32pt" viewBox="0 0 794.88 184.32" xmlns="http://www.w3.org/2000/svg" version="1.1">
 <metadata>
  <rdf:RDF xmlns:dc="http://purl.org/dc/elements/1.1/" xmlns:cc="http://creativecommons.org/ns#" xmlns:rdf="http://www.w3.org/1999/02/22-rdf-syntax-ns#">
   <cc:Work>
    <dc:type rdf:resource="http://purl.org/dc/dcmitype/StillImage"/>
    <dc:date>2022-09-24T19:18:20.228313</dc:date>
    <dc:format>image/svg+xml</dc:format>
    <dc:creator>
     <cc:Agent>
      <dc:title>Matplotlib v3.6.0, https://matplotlib.org/</dc:title>
     </cc:Agent>
    </dc:creator>
   </cc:Work>
  </rdf:RDF>
 </metadata>
 <defs>
  <style type="text/css">*{stroke-linejoin: round; stroke-linecap: butt}</style>
 </defs>
 <g id="figure_1">
  <g id="patch_1">
   <path d="M 0 184.32 
L 794.88 184.32 
L 794.88 0 
L 0 0 
z
" style="fill: #ffffff"/>
  </g>
  <g id="axes_1">
   <g id="patch_2">
    <path d="M 99.36 164.0448 
L 715.392 164.0448 
L 715.392 22.1184 
L 99.36 22.1184 
z
" style="fill: #ffffff"/>
   </g>
   <g id="patch_3">
    <path d="M 127.361455 164.0448 
L 132.999331 164.0448 
L 132.999331 28.8768 
L 127.361455 28.8768 
z
" clip-path="url(#p22a5608371)" style="fill: #808080"/>
   </g>
   <g id="patch_4">
    <path d="M 164.9473 164.0448 
L 170.585176 164.0448 
L 170.585176 157.48006 
L 164.9473 157.48006 
z
" clip-path="url(#p22a5608371)" style="fill: #808080"/>
   </g>
   <g id="patch_5">
    <path d="M 202.533145 164.0448 
L 208.171021 164.0448 
L 208.171021 105.815555 
L 202.533145 105.815555 
z
" clip-path="url(#p22a5608371)" style="fill: #808080"/>
   </g>
   <g id="patch_6">
    <path d="M 240.11899 164.0448 
L 245.756866 164.0448 
L 245.756866 48.045841 
L 240.11899 48.045841 
z
" clip-path="url(#p22a5608371)" style="fill: #808080"/>
   </g>
   <g id="patch_7">
    <path d="M 277.704835 164.0448 
L 283.342711 164.0448 
L 283.342711 49.227495 
L 277.704835 49.227495 
z
" clip-path="url(#p22a5608371)" style="fill: #808080"/>
   </g>
   <g id="patch_8">
    <path d="M 315.29068 164.0448 
L 320.928556 164.0448 
L 320.928556 48.177136 
L 315.29068 48.177136 
z
" clip-path="url(#p22a5608371)" style="fill: #808080"/>
   </g>
   <g id="patch_9">
    <path d="M 352.876525 164.0448 
L 358.514401 164.0448 
L 358.514401 157.48006 
L 352.876525 157.48006 
z
" clip-path="url(#p22a5608371)" style="fill: #808080"/>
   </g>
   <g id="patch_10">
    <path d="M 390.46237 164.0448 
L 396.100246 164.0448 
L 396.100246 108.900983 
L 390.46237 108.900983 
z
" clip-path="url(#p22a5608371)" style="fill: #808080"/>
   </g>
   <g id="patch_11">
    <path d="M 428.048215 164.0448 
L 433.686092 164.0448 
L 433.686092 59.402842 
L 428.048215 59.402842 
z
" clip-path="url(#p22a5608371)" style="fill: #808080"/>
   </g>
   <g id="patch_12">
    <path d="M 465.63406 164.0448 
L 471.271937 164.0448 
L 471.271937 80.541305 
L 465.63406 80.541305 
z
" clip-path="url(#p22a5608371)" style="fill: #808080"/>
   </g>
   <g id="patch_13">
    <path d="M 503.219905 164.0448 
L 508.857782 164.0448 
L 508.857782 105.159081 
L 503.219905 105.159081 
z
" clip-path="url(#p22a5608371)" style="fill: #808080"/>
   </g>
   <g id="patch_14">
    <path d="M 540.80575 164.0448 
L 546.443627 164.0448 
L 546.443627 105.42167 
L 540.80575 105.42167 
z
" clip-path="url(#p22a5608371)" style="fill: #808080"/>
   </g>
   <g id="patch_15">
    <path d="M 578.391595 164.0448 
L 584.029472 164.0448 
L 584.029472 105.224728 
L 578.391595 105.224728 
z
" clip-path="url(#p22a5608371)" style="fill: #808080"/>
   </g>
   <g id="patch_16">
    <path d="M 615.97744 164.0448 
L 621.615317 164.0448 
L 621.615317 157.48006 
L 615.97744 157.48006 
z
" clip-path="url(#p22a5608371)" style="fill: #808080"/>
   </g>
   <g id="patch_17">
    <path d="M 653.563285 164.0448 
L 659.201162 164.0448 
L 659.201162 110.73911 
L 653.563285 110.73911 
z
" clip-path="url(#p22a5608371)" style="fill: #808080"/>
   </g>
   <g id="patch_18">
    <path d="M 132.999331 164.0448 
L 138.637208 164.0448 
L 138.637208 150.455788 
L 132.999331 150.455788 
z
" clip-path="url(#p22a5608371)" style="fill: #0000ff"/>
   </g>
   <g id="patch_19">
    <path d="M 170.585176 164.0448 
L 176.223053 164.0448 
L 176.223053 157.48006 
L 170.585176 157.48006 
z
" clip-path="url(#p22a5608371)" style="fill: #0000ff"/>
   </g>
   <g id="patch_20">
    <path d="M 208.171021 164.0448 
L 213.808898 164.0448 
L 213.808898 153.869453 
L 208.171021 153.869453 
z
" clip-path="url(#p22a5608371)" style="fill: #0000ff"/>
   </g>
   <g id="patch_21">
    <path d="M 245.756866 164.0448 
L 251.394743 164.0448 
L 251.394743 155.904522 
L 245.756866 155.904522 
z
" clip-path="url(#p22a5608371)" style="fill: #0000ff"/>
   </g>
   <g id="patch_22">
    <path d="M 283.342711 164.0448 
L 288.980588 164.0448 
L 288.980588 154.394632 
L 283.342711 154.394632 
z
" clip-path="url(#p22a5608371)" style="fill: #0000ff"/>
   </g>
   <g id="patch_23">
    <path d="M 320.928556 164.0448 
L 326.566433 164.0448 
L 326.566433 154.394632 
L 320.928556 154.394632 
z
" clip-path="url(#p22a5608371)" style="fill: #0000ff"/>
   </g>
   <g id="patch_24">
    <path d="M 358.514401 164.0448 
L 364.152278 164.0448 
L 364.152278 157.48006 
L 358.514401 157.48006 
z
" clip-path="url(#p22a5608371)" style="fill: #0000ff"/>
   </g>
   <g id="patch_25">
    <path d="M 396.100246 164.0448 
L 401.738123 164.0448 
L 401.738123 155.313696 
L 396.100246 155.313696 
z
" clip-path="url(#p22a5608371)" style="fill: #0000ff"/>
   </g>
   <g id="patch_26">
    <path d="M 433.686092 164.0448 
L 439.323968 164.0448 
L 439.323968 154.394632 
L 433.686092 154.394632 
z
" clip-path="url(#p22a5608371)" style="fill: #0000ff"/>
   </g>
   <g id="patch_27">
    <path d="M 471.271937 164.0448 
L 476.909813 164.0448 
L 476.909813 155.773227 
L 471.271937 155.773227 
z
" clip-path="url(#p22a5608371)" style="fill: #0000ff"/>
   </g>
   <g id="patch_28">
    <path d="M 508.857782 164.0448 
L 514.495658 164.0448 
L 514.495658 154.328985 
L 508.857782 154.328985 
z
" clip-path="url(#p22a5608371)" style="fill: #0000ff"/>
   </g>
   <g id="patch_29">
    <path d="M 546.443627 164.0448 
L 552.081503 164.0448 
L 552.081503 147.37036 
L 546.443627 147.37036 
z
" clip-path="url(#p22a5608371)" style="fill: #0000ff"/>
   </g>
   <g id="patch_30">
    <path d="M 584.029472 164.0448 
L 589.667348 164.0448 
L 589.667348 153.541216 
L 584.029472 153.541216 
z
" clip-path="url(#p22a5608371)" style="fill: #0000ff"/>
   </g>
   <g id="patch_31">
    <path d="M 621.615317 164.0448 
L 627.253193 164.0448 
L 627.253193 157.48006 
L 621.615317 157.48006 
z
" clip-path="url(#p22a5608371)" style="fill: #0000ff"/>
   </g>
   <g id="patch_32">
    <path d="M 659.201162 164.0448 
L 664.839038 164.0448 
L 664.839038 156.954881 
L 659.201162 156.954881 
z
" clip-path="url(#p22a5608371)" style="fill: #0000ff"/>
   </g>
   <g id="patch_33">
    <path d="M 138.637208 164.0448 
L 144.275085 164.0448 
L 144.275085 151.571794 
L 138.637208 151.571794 
z
" clip-path="url(#p22a5608371)" style="fill: #ffa500"/>
   </g>
   <g id="patch_34">
    <path d="M 176.223053 164.0448 
L 181.86093 164.0448 
L 181.86093 157.48006 
L 176.223053 157.48006 
z
" clip-path="url(#p22a5608371)" style="fill: #ffa500"/>
   </g>
   <g id="patch_35">
    <path d="M 213.808898 164.0448 
L 219.446775 164.0448 
L 219.446775 153.278626 
L 213.808898 153.278626 
z
" clip-path="url(#p22a5608371)" style="fill: #ffa500"/>
   </g>
   <g id="patch_36">
    <path d="M 251.394743 164.0448 
L 257.03262 164.0448 
L 257.03262 155.838875 
L 251.394743 155.838875 
z
" clip-path="url(#p22a5608371)" style="fill: #ffa500"/>
   </g>
   <g id="patch_37">
    <path d="M 288.980588 164.0448 
L 294.618465 164.0448 
L 294.618465 154.591574 
L 288.980588 154.591574 
z
" clip-path="url(#p22a5608371)" style="fill: #ffa500"/>
   </g>
   <g id="patch_38">
    <path d="M 326.566433 164.0448 
L 332.20431 164.0448 
L 332.20431 154.394632 
L 326.566433 154.394632 
z
" clip-path="url(#p22a5608371)" style="fill: #ffa500"/>
   </g>
   <g id="patch_39">
    <path d="M 364.152278 164.0448 
L 369.790155 164.0448 
L 369.790155 157.48006 
L 364.152278 157.48006 
z
" clip-path="url(#p22a5608371)" style="fill: #ffa500"/>
   </g>
   <g id="patch_40">
    <path d="M 401.738123 164.0448 
L 407.376 164.0448 
L 407.376 154.854164 
L 401.738123 154.854164 
z
" clip-path="url(#p22a5608371)" style="fill: #ffa500"/>
   </g>
   <g id="patch_41">
    <path d="M 439.323968 164.0448 
L 444.961845 164.0448 
L 444.961845 154.394632 
L 439.323968 154.394632 
z
" clip-path="url(#p22a5608371)" style="fill: #ffa500"/>
   </g>
   <g id="patch_42">
    <path d="M 476.909813 164.0448 
L 482.54769 164.0448 
L 482.54769 155.773227 
L 476.909813 155.773227 
z
" clip-path="url(#p22a5608371)" style="fill: #ffa500"/>
   </g>
   <g id="patch_43">
    <path d="M 514.495658 164.0448 
L 520.133535 164.0448 
L 520.133535 154.000748 
L 514.495658 154.000748 
z
" clip-path="url(#p22a5608371)" style="fill: #ffa500"/>
   </g>
   <g id="patch_44">
    <path d="M 552.081503 164.0448 
L 557.71938 164.0448 
L 557.71938 129.251677 
L 552.081503 129.251677 
z
" clip-path="url(#p22a5608371)" style="fill: #ffa500"/>
   </g>
   <g id="patch_45">
    <path d="M 589.667348 164.0448 
L 595.305225 164.0448 
L 595.305225 153.672511 
L 589.667348 153.672511 
z
" clip-path="url(#p22a5608371)" style="fill: #ffa500"/>
   </g>
   <g id="patch_46">
    <path d="M 627.253193 164.0448 
L 632.89107 164.0448 
L 632.89107 157.48006 
L 627.253193 157.48006 
z
" clip-path="url(#p22a5608371)" style="fill: #ffa500"/>
   </g>
   <g id="patch_47">
    <path d="M 664.839038 164.0448 
L 670.476915 164.0448 
L 670.476915 157.086175 
L 664.839038 157.086175 
z
" clip-path="url(#p22a5608371)" style="fill: #ffa500"/>
   </g>
   <g id="patch_48">
    <path d="M 141.456146 164.0448 
L 147.094023 164.0448 
L 147.094023 153.409921 
L 141.456146 153.409921 
z
" clip-path="url(#p22a5608371)" style="fill: #008000"/>
   </g>
   <g id="patch_49">
    <path d="M 179.041991 164.0448 
L 184.679868 164.0448 
L 184.679868 157.48006 
L 179.041991 157.48006 
z
" clip-path="url(#p22a5608371)" style="fill: #008000"/>
   </g>
   <g id="patch_50">
    <path d="M 216.627836 164.0448 
L 222.265713 164.0448 
L 222.265713 157.388153 
L 216.627836 157.388153 
z
" clip-path="url(#p22a5608371)" style="fill: #008000"/>
   </g>
   <g id="patch_51">
    <path d="M 254.213682 164.0448 
L 259.851558 164.0448 
L 259.851558 157.48006 
L 254.213682 157.48006 
z
" clip-path="url(#p22a5608371)" style="fill: #008000"/>
   </g>
   <g id="patch_52">
    <path d="M 291.799527 164.0448 
L 297.437403 164.0448 
L 297.437403 156.232759 
L 291.799527 156.232759 
z
" clip-path="url(#p22a5608371)" style="fill: #008000"/>
   </g>
   <g id="patch_53">
    <path d="M 329.385372 164.0448 
L 335.023248 164.0448 
L 335.023248 154.394632 
L 329.385372 154.394632 
z
" clip-path="url(#p22a5608371)" style="fill: #008000"/>
   </g>
   <g id="patch_54">
    <path d="M 366.971217 164.0448 
L 372.609093 164.0448 
L 372.609093 157.48006 
L 366.971217 157.48006 
z
" clip-path="url(#p22a5608371)" style="fill: #008000"/>
   </g>
   <g id="patch_55">
    <path d="M 404.557062 164.0448 
L 410.194938 164.0448 
L 410.194938 157.086175 
L 404.557062 157.086175 
z
" clip-path="url(#p22a5608371)" style="fill: #008000"/>
   </g>
   <g id="patch_56">
    <path d="M 442.142907 164.0448 
L 447.780783 164.0448 
L 447.780783 154.394632 
L 442.142907 154.394632 
z
" clip-path="url(#p22a5608371)" style="fill: #008000"/>
   </g>
   <g id="patch_57">
    <path d="M 479.728752 164.0448 
L 485.366628 164.0448 
L 485.366628 157.48006 
L 479.728752 157.48006 
z
" clip-path="url(#p22a5608371)" style="fill: #008000"/>
   </g>
   <g id="patch_58">
    <path d="M 517.314597 164.0448 
L 522.952473 164.0448 
L 522.952473 157.21747 
L 517.314597 157.21747 
z
" clip-path="url(#p22a5608371)" style="fill: #008000"/>
   </g>
   <g id="patch_59">
    <path d="M 554.900442 164.0448 
L 560.538318 164.0448 
L 560.538318 151.834383 
L 554.900442 151.834383 
z
" clip-path="url(#p22a5608371)" style="fill: #008000"/>
   </g>
   <g id="patch_60">
    <path d="M 592.486287 164.0448 
L 598.124164 164.0448 
L 598.124164 152.359563 
L 592.486287 152.359563 
z
" clip-path="url(#p22a5608371)" style="fill: #008000"/>
   </g>
   <g id="patch_61">
    <path d="M 630.072132 164.0448 
L 635.710009 164.0448 
L 635.710009 157.48006 
L 630.072132 157.48006 
z
" clip-path="url(#p22a5608371)" style="fill: #008000"/>
   </g>
   <g id="patch_62">
    <path d="M 667.657977 164.0448 
L 673.295854 164.0448 
L 673.295854 156.035817 
L 667.657977 156.035817 
z
" clip-path="url(#p22a5608371)" style="fill: #008000"/>
   </g>
   <g id="patch_63">
    <path d="M 144.275085 164.0448 
L 149.912962 164.0448 
L 149.912962 153.803805 
L 144.275085 153.803805 
z
" clip-path="url(#p22a5608371)" style="fill: #a52a2a"/>
   </g>
   <g id="patch_64">
    <path d="M 181.86093 164.0448 
L 187.498807 164.0448 
L 187.498807 157.48006 
L 181.86093 157.48006 
z
" clip-path="url(#p22a5608371)" style="fill: #a52a2a"/>
   </g>
   <g id="patch_65">
    <path d="M 219.446775 164.0448 
L 225.084652 164.0448 
L 225.084652 157.348765 
L 219.446775 157.348765 
z
" clip-path="url(#p22a5608371)" style="fill: #a52a2a"/>
   </g>
   <g id="patch_66">
    <path d="M 257.03262 164.0448 
L 262.670497 164.0448 
L 262.670497 156.232759 
L 257.03262 156.232759 
z
" clip-path="url(#p22a5608371)" style="fill: #a52a2a"/>
   </g>
   <g id="patch_67">
    <path d="M 294.618465 164.0448 
L 300.256342 164.0448 
L 300.256342 155.313696 
L 294.618465 155.313696 
z
" clip-path="url(#p22a5608371)" style="fill: #a52a2a"/>
   </g>
   <g id="patch_68">
    <path d="M 332.20431 164.0448 
L 337.842187 164.0448 
L 337.842187 154.394632 
L 332.20431 154.394632 
z
" clip-path="url(#p22a5608371)" style="fill: #a52a2a"/>
   </g>
   <g id="patch_69">
    <path d="M 369.790155 164.0448 
L 375.428032 164.0448 
L 375.428032 157.48006 
L 369.790155 157.48006 
z
" clip-path="url(#p22a5608371)" style="fill: #a52a2a"/>
   </g>
   <g id="patch_70">
    <path d="M 407.376 164.0448 
L 413.013877 164.0448 
L 413.013877 154.460279 
L 407.376 154.460279 
z
" clip-path="url(#p22a5608371)" style="fill: #a52a2a"/>
   </g>
   <g id="patch_71">
    <path d="M 444.961845 164.0448 
L 450.599722 164.0448 
L 450.599722 154.394632 
L 444.961845 154.394632 
z
" clip-path="url(#p22a5608371)" style="fill: #a52a2a"/>
   </g>
   <g id="patch_72">
    <path d="M 482.54769 164.0448 
L 488.185567 164.0448 
L 488.185567 157.48006 
L 482.54769 157.48006 
z
" clip-path="url(#p22a5608371)" style="fill: #a52a2a"/>
   </g>
   <g id="patch_73">
    <path d="M 520.133535 164.0448 
L 525.771412 164.0448 
L 525.771412 157.348765 
L 520.133535 157.348765 
z
" clip-path="url(#p22a5608371)" style="fill: #a52a2a"/>
   </g>
   <g id="patch_74">
    <path d="M 557.71938 164.0448 
L 563.357257 164.0448 
L 563.357257 132.862284 
L 557.71938 132.862284 
z
" clip-path="url(#p22a5608371)" style="fill: #a52a2a"/>
   </g>
   <g id="patch_75">
    <path d="M 595.305225 164.0448 
L 600.943102 164.0448 
L 600.943102 153.409921 
L 595.305225 153.409921 
z
" clip-path="url(#p22a5608371)" style="fill: #a52a2a"/>
   </g>
   <g id="patch_76">
    <path d="M 632.89107 164.0448 
L 638.528947 164.0448 
L 638.528947 157.48006 
L 632.89107 157.48006 
z
" clip-path="url(#p22a5608371)" style="fill: #a52a2a"/>
   </g>
   <g id="patch_77">
    <path d="M 670.476915 164.0448 
L 676.114792 164.0448 
L 676.114792 157.151823 
L 670.476915 157.151823 
z
" clip-path="url(#p22a5608371)" style="fill: #a52a2a"/>
   </g>
   <g id="patch_78">
    <path d="M 149.912962 164.0448 
L 155.550838 164.0448 
L 155.550838 154.657222 
L 149.912962 154.657222 
z
" clip-path="url(#p22a5608371)" style="fill: #00ffff"/>
   </g>
   <g id="patch_79">
    <path d="M 187.498807 164.0448 
L 193.136683 164.0448 
L 193.136683 157.48006 
L 187.498807 157.48006 
z
" clip-path="url(#p22a5608371)" style="fill: #00ffff"/>
   </g>
   <g id="patch_80">
    <path d="M 225.084652 164.0448 
L 230.722528 164.0448 
L 230.722528 157.388153 
L 225.084652 157.388153 
z
" clip-path="url(#p22a5608371)" style="fill: #00ffff"/>
   </g>
   <g id="patch_81">
    <path d="M 262.670497 164.0448 
L 268.308373 164.0448 
L 268.308373 157.48006 
L 262.670497 157.48006 
z
" clip-path="url(#p22a5608371)" style="fill: #00ffff"/>
   </g>
   <g id="patch_82">
    <path d="M 300.256342 164.0448 
L 305.894218 164.0448 
L 305.894218 156.232759 
L 300.256342 156.232759 
z
" clip-path="url(#p22a5608371)" style="fill: #00ffff"/>
   </g>
   <g id="patch_83">
    <path d="M 337.842187 164.0448 
L 343.480063 164.0448 
L 343.480063 154.394632 
L 337.842187 154.394632 
z
" clip-path="url(#p22a5608371)" style="fill: #00ffff"/>
   </g>
   <g id="patch_84">
    <path d="M 375.428032 164.0448 
L 381.065908 164.0448 
L 381.065908 157.48006 
L 375.428032 157.48006 
z
" clip-path="url(#p22a5608371)" style="fill: #00ffff"/>
   </g>
   <g id="patch_85">
    <path d="M 413.013877 164.0448 
L 418.651754 164.0448 
L 418.651754 157.086175 
L 413.013877 157.086175 
z
" clip-path="url(#p22a5608371)" style="fill: #00ffff"/>
   </g>
   <g id="patch_86">
    <path d="M 450.599722 164.0448 
L 456.237599 164.0448 
L 456.237599 154.394632 
L 450.599722 154.394632 
z
" clip-path="url(#p22a5608371)" style="fill: #00ffff"/>
   </g>
   <g id="patch_87">
    <path d="M 488.185567 164.0448 
L 493.823444 164.0448 
L 493.823444 157.48006 
L 488.185567 157.48006 
z
" clip-path="url(#p22a5608371)" style="fill: #00ffff"/>
   </g>
   <g id="patch_88">
    <path d="M 525.771412 164.0448 
L 531.409289 164.0448 
L 531.409289 157.348765 
L 525.771412 157.348765 
z
" clip-path="url(#p22a5608371)" style="fill: #00ffff"/>
   </g>
   <g id="patch_89">
    <path d="M 563.357257 164.0448 
L 568.995134 164.0448 
L 568.995134 152.819094 
L 563.357257 152.819094 
z
" clip-path="url(#p22a5608371)" style="fill: #00ffff"/>
   </g>
   <g id="patch_90">
    <path d="M 600.943102 164.0448 
L 606.580979 164.0448 
L 606.580979 152.753447 
L 600.943102 152.753447 
z
" clip-path="url(#p22a5608371)" style="fill: #00ffff"/>
   </g>
   <g id="patch_91">
    <path d="M 638.528947 164.0448 
L 644.166824 164.0448 
L 644.166824 157.48006 
L 638.528947 157.48006 
z
" clip-path="url(#p22a5608371)" style="fill: #00ffff"/>
   </g>
   <g id="patch_92">
    <path d="M 676.114792 164.0448 
L 681.752669 164.0448 
L 681.752669 157.151823 
L 676.114792 157.151823 
z
" clip-path="url(#p22a5608371)" style="fill: #00ffff"/>
   </g>
   <g id="patch_93">
    <path d="M 155.550838 164.0448 
L 161.188715 164.0448 
L 161.188715 157.48006 
L 155.550838 157.48006 
z
" clip-path="url(#p22a5608371)" style="fill: #ff0000"/>
   </g>
   <g id="patch_94">
    <path d="M 193.136683 164.0448 
L 198.77456 164.0448 
L 198.77456 157.48006 
L 193.136683 157.48006 
z
" clip-path="url(#p22a5608371)" style="fill: #ff0000"/>
   </g>
   <g id="patch_95">
    <path d="M 230.722528 164.0448 
L 236.360405 164.0448 
L 236.360405 157.48006 
L 230.722528 157.48006 
z
" clip-path="url(#p22a5608371)" style="fill: #ff0000"/>
   </g>
   <g id="patch_96">
    <path d="M 268.308373 164.0448 
L 273.94625 164.0448 
L 273.94625 157.48006 
L 268.308373 157.48006 
z
" clip-path="url(#p22a5608371)" style="fill: #ff0000"/>
   </g>
   <g id="patch_97">
    <path d="M 305.894218 164.0448 
L 311.532095 164.0448 
L 311.532095 157.48006 
L 305.894218 157.48006 
z
" clip-path="url(#p22a5608371)" style="fill: #ff0000"/>
   </g>
   <g id="patch_98">
    <path d="M 343.480063 164.0448 
L 349.11794 164.0448 
L 349.11794 157.48006 
L 343.480063 157.48006 
z
" clip-path="url(#p22a5608371)" style="fill: #ff0000"/>
   </g>
   <g id="patch_99">
    <path d="M 381.065908 164.0448 
L 386.703785 164.0448 
L 386.703785 157.48006 
L 381.065908 157.48006 
z
" clip-path="url(#p22a5608371)" style="fill: #ff0000"/>
   </g>
   <g id="patch_100">
    <path d="M 418.651754 164.0448 
L 424.28963 164.0448 
L 424.28963 157.48006 
L 418.651754 157.48006 
z
" clip-path="url(#p22a5608371)" style="fill: #ff0000"/>
   </g>
   <g id="patch_101">
    <path d="M 456.237599 164.0448 
L 461.875475 164.0448 
L 461.875475 157.48006 
L 456.237599 157.48006 
z
" clip-path="url(#p22a5608371)" style="fill: #ff0000"/>
   </g>
   <g id="patch_102">
    <path d="M 493.823444 164.0448 
L 499.46132 164.0448 
L 499.46132 157.48006 
L 493.823444 157.48006 
z
" clip-path="url(#p22a5608371)" style="fill: #ff0000"/>
   </g>
   <g id="patch_103">
    <path d="M 531.409289 164.0448 
L 537.047165 164.0448 
L 537.047165 157.48006 
L 531.409289 157.48006 
z
" clip-path="url(#p22a5608371)" style="fill: #ff0000"/>
   </g>
   <g id="patch_104">
    <path d="M 568.995134 164.0448 
L 574.63301 164.0448 
L 574.63301 157.48006 
L 568.995134 157.48006 
z
" clip-path="url(#p22a5608371)" style="fill: #ff0000"/>
   </g>
   <g id="patch_105">
    <path d="M 606.580979 164.0448 
L 612.218855 164.0448 
L 612.218855 157.48006 
L 606.580979 157.48006 
z
" clip-path="url(#p22a5608371)" style="fill: #ff0000"/>
   </g>
   <g id="patch_106">
    <path d="M 644.166824 164.0448 
L 649.8047 164.0448 
L 649.8047 157.48006 
L 644.166824 157.48006 
z
" clip-path="url(#p22a5608371)" style="fill: #ff0000"/>
   </g>
   <g id="patch_107">
    <path d="M 681.752669 164.0448 
L 687.390545 164.0448 
L 687.390545 157.48006 
L 681.752669 157.48006 
z
" clip-path="url(#p22a5608371)" style="fill: #ff0000"/>
   </g>
   <g id="matplotlib.axis_1">
    <g id="xtick_1">
     <g id="line2d_1">
      <defs>
       <path id="ma8fd53fc05" d="M 0 0 
L 0 3.5 
" style="stroke: #000000; stroke-width: 0.8"/>
      </defs>
      <g>
       <use xlink:href="#ma8fd53fc05" x="144.275085" y="164.0448" style="stroke: #000000; stroke-width: 0.8"/>
      </g>
     </g>
     <g id="text_1">
      <!-- WK1 -->
      <g transform="translate(132.871179 178.643237) scale(0.1 -0.1)">
       <defs>
        <path id="DejaVuSans-57" d="M 213 4666 
L 850 4666 
L 1831 722 
L 2809 4666 
L 3519 4666 
L 4500 722 
L 5478 4666 
L 6119 4666 
L 4947 0 
L 4153 0 
L 3169 4050 
L 2175 0 
L 1381 0 
L 213 4666 
z
" transform="scale(0.015625)"/>
        <path id="DejaVuSans-4b" d="M 628 4666 
L 1259 4666 
L 1259 2694 
L 3353 4666 
L 4166 4666 
L 1850 2491 
L 4331 0 
L 3500 0 
L 1259 2247 
L 1259 0 
L 628 0 
L 628 4666 
z
" transform="scale(0.015625)"/>
        <path id="DejaVuSans-31" d="M 794 531 
L 1825 531 
L 1825 4091 
L 703 3866 
L 703 4441 
L 1819 4666 
L 2450 4666 
L 2450 531 
L 3481 531 
L 3481 0 
L 794 0 
L 794 531 
z
" transform="scale(0.015625)"/>
       </defs>
       <use xlink:href="#DejaVuSans-57"/>
       <use xlink:href="#DejaVuSans-4b" x="98.876953"/>
       <use xlink:href="#DejaVuSans-31" x="164.453125"/>
      </g>
     </g>
    </g>
    <g id="xtick_2">
     <g id="line2d_2">
      <g>
       <use xlink:href="#ma8fd53fc05" x="181.86093" y="164.0448" style="stroke: #000000; stroke-width: 0.8"/>
      </g>
     </g>
     <g id="text_2">
      <!-- WK2 -->
      <g transform="translate(170.457024 178.643237) scale(0.1 -0.1)">
       <defs>
        <path id="DejaVuSans-32" d="M 1228 531 
L 3431 531 
L 3431 0 
L 469 0 
L 469 531 
Q 828 903 1448 1529 
Q 2069 2156 2228 2338 
Q 2531 2678 2651 2914 
Q 2772 3150 2772 3378 
Q 2772 3750 2511 3984 
Q 2250 4219 1831 4219 
Q 1534 4219 1204 4116 
Q 875 4013 500 3803 
L 500 4441 
Q 881 4594 1212 4672 
Q 1544 4750 1819 4750 
Q 2544 4750 2975 4387 
Q 3406 4025 3406 3419 
Q 3406 3131 3298 2873 
Q 3191 2616 2906 2266 
Q 2828 2175 2409 1742 
Q 1991 1309 1228 531 
z
" transform="scale(0.015625)"/>
       </defs>
       <use xlink:href="#DejaVuSans-57"/>
       <use xlink:href="#DejaVuSans-4b" x="98.876953"/>
       <use xlink:href="#DejaVuSans-32" x="164.453125"/>
      </g>
     </g>
    </g>
    <g id="xtick_3">
     <g id="line2d_3">
      <g>
       <use xlink:href="#ma8fd53fc05" x="219.446775" y="164.0448" style="stroke: #000000; stroke-width: 0.8"/>
      </g>
     </g>
     <g id="text_3">
      <!-- WK3 -->
      <g transform="translate(208.042869 178.643237) scale(0.1 -0.1)">
       <defs>
        <path id="DejaVuSans-33" d="M 2597 2516 
Q 3050 2419 3304 2112 
Q 3559 1806 3559 1356 
Q 3559 666 3084 287 
Q 2609 -91 1734 -91 
Q 1441 -91 1130 -33 
Q 819 25 488 141 
L 488 750 
Q 750 597 1062 519 
Q 1375 441 1716 441 
Q 2309 441 2620 675 
Q 2931 909 2931 1356 
Q 2931 1769 2642 2001 
Q 2353 2234 1838 2234 
L 1294 2234 
L 1294 2753 
L 1863 2753 
Q 2328 2753 2575 2939 
Q 2822 3125 2822 3475 
Q 2822 3834 2567 4026 
Q 2313 4219 1838 4219 
Q 1578 4219 1281 4162 
Q 984 4106 628 3988 
L 628 4550 
Q 988 4650 1302 4700 
Q 1616 4750 1894 4750 
Q 2613 4750 3031 4423 
Q 3450 4097 3450 3541 
Q 3450 3153 3228 2886 
Q 3006 2619 2597 2516 
z
" transform="scale(0.015625)"/>
       </defs>
       <use xlink:href="#DejaVuSans-57"/>
       <use xlink:href="#DejaVuSans-4b" x="98.876953"/>
       <use xlink:href="#DejaVuSans-33" x="164.453125"/>
      </g>
     </g>
    </g>
    <g id="xtick_4">
     <g id="line2d_4">
      <g>
       <use xlink:href="#ma8fd53fc05" x="257.03262" y="164.0448" style="stroke: #000000; stroke-width: 0.8"/>
      </g>
     </g>
     <g id="text_4">
      <!-- WK4 -->
      <g transform="translate(245.628714 178.643237) scale(0.1 -0.1)">
       <defs>
        <path id="DejaVuSans-34" d="M 2419 4116 
L 825 1625 
L 2419 1625 
L 2419 4116 
z
M 2253 4666 
L 3047 4666 
L 3047 1625 
L 3713 1625 
L 3713 1100 
L 3047 1100 
L 3047 0 
L 2419 0 
L 2419 1100 
L 313 1100 
L 313 1709 
L 2253 4666 
z
" transform="scale(0.015625)"/>
       </defs>
       <use xlink:href="#DejaVuSans-57"/>
       <use xlink:href="#DejaVuSans-4b" x="98.876953"/>
       <use xlink:href="#DejaVuSans-34" x="164.453125"/>
      </g>
     </g>
    </g>
    <g id="xtick_5">
     <g id="line2d_5">
      <g>
       <use xlink:href="#ma8fd53fc05" x="294.618465" y="164.0448" style="stroke: #000000; stroke-width: 0.8"/>
      </g>
     </g>
     <g id="text_5">
      <!-- WK5 -->
      <g transform="translate(283.214559 178.643237) scale(0.1 -0.1)">
       <defs>
        <path id="DejaVuSans-35" d="M 691 4666 
L 3169 4666 
L 3169 4134 
L 1269 4134 
L 1269 2991 
Q 1406 3038 1543 3061 
Q 1681 3084 1819 3084 
Q 2600 3084 3056 2656 
Q 3513 2228 3513 1497 
Q 3513 744 3044 326 
Q 2575 -91 1722 -91 
Q 1428 -91 1123 -41 
Q 819 9 494 109 
L 494 744 
Q 775 591 1075 516 
Q 1375 441 1709 441 
Q 2250 441 2565 725 
Q 2881 1009 2881 1497 
Q 2881 1984 2565 2268 
Q 2250 2553 1709 2553 
Q 1456 2553 1204 2497 
Q 953 2441 691 2322 
L 691 4666 
z
" transform="scale(0.015625)"/>
       </defs>
       <use xlink:href="#DejaVuSans-57"/>
       <use xlink:href="#DejaVuSans-4b" x="98.876953"/>
       <use xlink:href="#DejaVuSans-35" x="164.453125"/>
      </g>
     </g>
    </g>
    <g id="xtick_6">
     <g id="line2d_6">
      <g>
       <use xlink:href="#ma8fd53fc05" x="332.20431" y="164.0448" style="stroke: #000000; stroke-width: 0.8"/>
      </g>
     </g>
     <g id="text_6">
      <!-- WK6 -->
      <g transform="translate(320.800404 178.643237) scale(0.1 -0.1)">
       <defs>
        <path id="DejaVuSans-36" d="M 2113 2584 
Q 1688 2584 1439 2293 
Q 1191 2003 1191 1497 
Q 1191 994 1439 701 
Q 1688 409 2113 409 
Q 2538 409 2786 701 
Q 3034 994 3034 1497 
Q 3034 2003 2786 2293 
Q 2538 2584 2113 2584 
z
M 3366 4563 
L 3366 3988 
Q 3128 4100 2886 4159 
Q 2644 4219 2406 4219 
Q 1781 4219 1451 3797 
Q 1122 3375 1075 2522 
Q 1259 2794 1537 2939 
Q 1816 3084 2150 3084 
Q 2853 3084 3261 2657 
Q 3669 2231 3669 1497 
Q 3669 778 3244 343 
Q 2819 -91 2113 -91 
Q 1303 -91 875 529 
Q 447 1150 447 2328 
Q 447 3434 972 4092 
Q 1497 4750 2381 4750 
Q 2619 4750 2861 4703 
Q 3103 4656 3366 4563 
z
" transform="scale(0.015625)"/>
       </defs>
       <use xlink:href="#DejaVuSans-57"/>
       <use xlink:href="#DejaVuSans-4b" x="98.876953"/>
       <use xlink:href="#DejaVuSans-36" x="164.453125"/>
      </g>
     </g>
    </g>
    <g id="xtick_7">
     <g id="line2d_7">
      <g>
       <use xlink:href="#ma8fd53fc05" x="369.790155" y="164.0448" style="stroke: #000000; stroke-width: 0.8"/>
      </g>
     </g>
     <g id="text_7">
      <!-- WK7 -->
      <g transform="translate(358.386249 178.643237) scale(0.1 -0.1)">
       <defs>
        <path id="DejaVuSans-37" d="M 525 4666 
L 3525 4666 
L 3525 4397 
L 1831 0 
L 1172 0 
L 2766 4134 
L 525 4134 
L 525 4666 
z
" transform="scale(0.015625)"/>
       </defs>
       <use xlink:href="#DejaVuSans-57"/>
       <use xlink:href="#DejaVuSans-4b" x="98.876953"/>
       <use xlink:href="#DejaVuSans-37" x="164.453125"/>
      </g>
     </g>
    </g>
    <g id="xtick_8">
     <g id="line2d_8">
      <g>
       <use xlink:href="#ma8fd53fc05" x="407.376" y="164.0448" style="stroke: #000000; stroke-width: 0.8"/>
      </g>
     </g>
     <g id="text_8">
      <!-- WK8 -->
      <g transform="translate(395.972094 178.643237) scale(0.1 -0.1)">
       <defs>
        <path id="DejaVuSans-38" d="M 2034 2216 
Q 1584 2216 1326 1975 
Q 1069 1734 1069 1313 
Q 1069 891 1326 650 
Q 1584 409 2034 409 
Q 2484 409 2743 651 
Q 3003 894 3003 1313 
Q 3003 1734 2745 1975 
Q 2488 2216 2034 2216 
z
M 1403 2484 
Q 997 2584 770 2862 
Q 544 3141 544 3541 
Q 544 4100 942 4425 
Q 1341 4750 2034 4750 
Q 2731 4750 3128 4425 
Q 3525 4100 3525 3541 
Q 3525 3141 3298 2862 
Q 3072 2584 2669 2484 
Q 3125 2378 3379 2068 
Q 3634 1759 3634 1313 
Q 3634 634 3220 271 
Q 2806 -91 2034 -91 
Q 1263 -91 848 271 
Q 434 634 434 1313 
Q 434 1759 690 2068 
Q 947 2378 1403 2484 
z
M 1172 3481 
Q 1172 3119 1398 2916 
Q 1625 2713 2034 2713 
Q 2441 2713 2670 2916 
Q 2900 3119 2900 3481 
Q 2900 3844 2670 4047 
Q 2441 4250 2034 4250 
Q 1625 4250 1398 4047 
Q 1172 3844 1172 3481 
z
" transform="scale(0.015625)"/>
       </defs>
       <use xlink:href="#DejaVuSans-57"/>
       <use xlink:href="#DejaVuSans-4b" x="98.876953"/>
       <use xlink:href="#DejaVuSans-38" x="164.453125"/>
      </g>
     </g>
    </g>
    <g id="xtick_9">
     <g id="line2d_9">
      <g>
       <use xlink:href="#ma8fd53fc05" x="444.961845" y="164.0448" style="stroke: #000000; stroke-width: 0.8"/>
      </g>
     </g>
     <g id="text_9">
      <!-- WK9 -->
      <g transform="translate(433.557939 178.643237) scale(0.1 -0.1)">
       <defs>
        <path id="DejaVuSans-39" d="M 703 97 
L 703 672 
Q 941 559 1184 500 
Q 1428 441 1663 441 
Q 2288 441 2617 861 
Q 2947 1281 2994 2138 
Q 2813 1869 2534 1725 
Q 2256 1581 1919 1581 
Q 1219 1581 811 2004 
Q 403 2428 403 3163 
Q 403 3881 828 4315 
Q 1253 4750 1959 4750 
Q 2769 4750 3195 4129 
Q 3622 3509 3622 2328 
Q 3622 1225 3098 567 
Q 2575 -91 1691 -91 
Q 1453 -91 1209 -44 
Q 966 3 703 97 
z
M 1959 2075 
Q 2384 2075 2632 2365 
Q 2881 2656 2881 3163 
Q 2881 3666 2632 3958 
Q 2384 4250 1959 4250 
Q 1534 4250 1286 3958 
Q 1038 3666 1038 3163 
Q 1038 2656 1286 2365 
Q 1534 2075 1959 2075 
z
" transform="scale(0.015625)"/>
       </defs>
       <use xlink:href="#DejaVuSans-57"/>
       <use xlink:href="#DejaVuSans-4b" x="98.876953"/>
       <use xlink:href="#DejaVuSans-39" x="164.453125"/>
      </g>
     </g>
    </g>
    <g id="xtick_10">
     <g id="line2d_10">
      <g>
       <use xlink:href="#ma8fd53fc05" x="482.54769" y="164.0448" style="stroke: #000000; stroke-width: 0.8"/>
      </g>
     </g>
     <g id="text_10">
      <!-- WK10 -->
      <g transform="translate(467.962534 178.643237) scale(0.1 -0.1)">
       <defs>
        <path id="DejaVuSans-30" d="M 2034 4250 
Q 1547 4250 1301 3770 
Q 1056 3291 1056 2328 
Q 1056 1369 1301 889 
Q 1547 409 2034 409 
Q 2525 409 2770 889 
Q 3016 1369 3016 2328 
Q 3016 3291 2770 3770 
Q 2525 4250 2034 4250 
z
M 2034 4750 
Q 2819 4750 3233 4129 
Q 3647 3509 3647 2328 
Q 3647 1150 3233 529 
Q 2819 -91 2034 -91 
Q 1250 -91 836 529 
Q 422 1150 422 2328 
Q 422 3509 836 4129 
Q 1250 4750 2034 4750 
z
" transform="scale(0.015625)"/>
       </defs>
       <use xlink:href="#DejaVuSans-57"/>
       <use xlink:href="#DejaVuSans-4b" x="98.876953"/>
       <use xlink:href="#DejaVuSans-31" x="164.453125"/>
       <use xlink:href="#DejaVuSans-30" x="228.076172"/>
      </g>
     </g>
    </g>
    <g id="xtick_11">
     <g id="line2d_11">
      <g>
       <use xlink:href="#ma8fd53fc05" x="520.133535" y="164.0448" style="stroke: #000000; stroke-width: 0.8"/>
      </g>
     </g>
     <g id="text_11">
      <!-- WK11 -->
      <g transform="translate(505.548379 178.643237) scale(0.1 -0.1)">
       <use xlink:href="#DejaVuSans-57"/>
       <use xlink:href="#DejaVuSans-4b" x="98.876953"/>
       <use xlink:href="#DejaVuSans-31" x="164.453125"/>
       <use xlink:href="#DejaVuSans-31" x="228.076172"/>
      </g>
     </g>
    </g>
    <g id="xtick_12">
     <g id="line2d_12">
      <g>
       <use xlink:href="#ma8fd53fc05" x="557.71938" y="164.0448" style="stroke: #000000; stroke-width: 0.8"/>
      </g>
     </g>
     <g id="text_12">
      <!-- WK12 -->
      <g transform="translate(543.134224 178.643237) scale(0.1 -0.1)">
       <use xlink:href="#DejaVuSans-57"/>
       <use xlink:href="#DejaVuSans-4b" x="98.876953"/>
       <use xlink:href="#DejaVuSans-31" x="164.453125"/>
       <use xlink:href="#DejaVuSans-32" x="228.076172"/>
      </g>
     </g>
    </g>
    <g id="xtick_13">
     <g id="line2d_13">
      <g>
       <use xlink:href="#ma8fd53fc05" x="595.305225" y="164.0448" style="stroke: #000000; stroke-width: 0.8"/>
      </g>
     </g>
     <g id="text_13">
      <!-- WK13 -->
      <g transform="translate(580.720069 178.643237) scale(0.1 -0.1)">
       <use xlink:href="#DejaVuSans-57"/>
       <use xlink:href="#DejaVuSans-4b" x="98.876953"/>
       <use xlink:href="#DejaVuSans-31" x="164.453125"/>
       <use xlink:href="#DejaVuSans-33" x="228.076172"/>
      </g>
     </g>
    </g>
    <g id="xtick_14">
     <g id="line2d_14">
      <g>
       <use xlink:href="#ma8fd53fc05" x="632.89107" y="164.0448" style="stroke: #000000; stroke-width: 0.8"/>
      </g>
     </g>
     <g id="text_14">
      <!-- WK14 -->
      <g transform="translate(618.305914 178.643237) scale(0.1 -0.1)">
       <use xlink:href="#DejaVuSans-57"/>
       <use xlink:href="#DejaVuSans-4b" x="98.876953"/>
       <use xlink:href="#DejaVuSans-31" x="164.453125"/>
       <use xlink:href="#DejaVuSans-34" x="228.076172"/>
      </g>
     </g>
    </g>
    <g id="xtick_15">
     <g id="line2d_15">
      <g>
       <use xlink:href="#ma8fd53fc05" x="670.476915" y="164.0448" style="stroke: #000000; stroke-width: 0.8"/>
      </g>
     </g>
     <g id="text_15">
      <!-- WK15 -->
      <g transform="translate(655.891759 178.643237) scale(0.1 -0.1)">
       <use xlink:href="#DejaVuSans-57"/>
       <use xlink:href="#DejaVuSans-4b" x="98.876953"/>
       <use xlink:href="#DejaVuSans-31" x="164.453125"/>
       <use xlink:href="#DejaVuSans-35" x="228.076172"/>
      </g>
     </g>
    </g>
   </g>
   <g id="matplotlib.axis_2">
    <g id="ytick_1">
     <g id="line2d_16">
      <defs>
       <path id="m1faedaae2d" d="M 0 0 
L -3.5 0 
" style="stroke: #000000; stroke-width: 0.8"/>
      </defs>
      <g>
       <use xlink:href="#m1faedaae2d" x="99.36" y="164.0448" style="stroke: #000000; stroke-width: 0.8"/>
      </g>
     </g>
     <g id="text_16">
      <!-- 0 -->
      <g transform="translate(85.9975 167.844019) scale(0.1 -0.1)">
       <use xlink:href="#DejaVuSans-30"/>
      </g>
     </g>
    </g>
    <g id="ytick_2">
     <g id="line2d_17">
      <g>
       <use xlink:href="#m1faedaae2d" x="99.36" y="131.221099" style="stroke: #000000; stroke-width: 0.8"/>
      </g>
     </g>
     <g id="text_17">
      <!-- 5 -->
      <g transform="translate(85.9975 135.020318) scale(0.1 -0.1)">
       <use xlink:href="#DejaVuSans-35"/>
      </g>
     </g>
    </g>
    <g id="ytick_3">
     <g id="line2d_18">
      <g>
       <use xlink:href="#m1faedaae2d" x="99.36" y="98.397398" style="stroke: #000000; stroke-width: 0.8"/>
      </g>
     </g>
     <g id="text_18">
      <!-- 10 -->
      <g transform="translate(79.635 102.196617) scale(0.1 -0.1)">
       <use xlink:href="#DejaVuSans-31"/>
       <use xlink:href="#DejaVuSans-30" x="63.623047"/>
      </g>
     </g>
    </g>
    <g id="ytick_4">
     <g id="line2d_19">
      <g>
       <use xlink:href="#m1faedaae2d" x="99.36" y="65.573698" style="stroke: #000000; stroke-width: 0.8"/>
      </g>
     </g>
     <g id="text_19">
      <!-- 15 -->
      <g transform="translate(79.635 69.372916) scale(0.1 -0.1)">
       <use xlink:href="#DejaVuSans-31"/>
       <use xlink:href="#DejaVuSans-35" x="63.623047"/>
      </g>
     </g>
    </g>
    <g id="ytick_5">
     <g id="line2d_20">
      <g>
       <use xlink:href="#m1faedaae2d" x="99.36" y="32.749997" style="stroke: #000000; stroke-width: 0.8"/>
      </g>
     </g>
     <g id="text_20">
      <!-- 20 -->
      <g transform="translate(79.635 36.549215) scale(0.1 -0.1)">
       <use xlink:href="#DejaVuSans-32"/>
       <use xlink:href="#DejaVuSans-30" x="63.623047"/>
      </g>
     </g>
    </g>
    <g id="text_21">
     <!-- Normalized Execution Time -->
     <g transform="translate(73.555312 161.383162) rotate(-90) scale(0.1 -0.1)">
      <defs>
       <path id="DejaVuSans-4e" d="M 628 4666 
L 1478 4666 
L 3547 763 
L 3547 4666 
L 4159 4666 
L 4159 0 
L 3309 0 
L 1241 3903 
L 1241 0 
L 628 0 
L 628 4666 
z
" transform="scale(0.015625)"/>
       <path id="DejaVuSans-6f" d="M 1959 3097 
Q 1497 3097 1228 2736 
Q 959 2375 959 1747 
Q 959 1119 1226 758 
Q 1494 397 1959 397 
Q 2419 397 2687 759 
Q 2956 1122 2956 1747 
Q 2956 2369 2687 2733 
Q 2419 3097 1959 3097 
z
M 1959 3584 
Q 2709 3584 3137 3096 
Q 3566 2609 3566 1747 
Q 3566 888 3137 398 
Q 2709 -91 1959 -91 
Q 1206 -91 779 398 
Q 353 888 353 1747 
Q 353 2609 779 3096 
Q 1206 3584 1959 3584 
z
" transform="scale(0.015625)"/>
       <path id="DejaVuSans-72" d="M 2631 2963 
Q 2534 3019 2420 3045 
Q 2306 3072 2169 3072 
Q 1681 3072 1420 2755 
Q 1159 2438 1159 1844 
L 1159 0 
L 581 0 
L 581 3500 
L 1159 3500 
L 1159 2956 
Q 1341 3275 1631 3429 
Q 1922 3584 2338 3584 
Q 2397 3584 2469 3576 
Q 2541 3569 2628 3553 
L 2631 2963 
z
" transform="scale(0.015625)"/>
       <path id="DejaVuSans-6d" d="M 3328 2828 
Q 3544 3216 3844 3400 
Q 4144 3584 4550 3584 
Q 5097 3584 5394 3201 
Q 5691 2819 5691 2113 
L 5691 0 
L 5113 0 
L 5113 2094 
Q 5113 2597 4934 2840 
Q 4756 3084 4391 3084 
Q 3944 3084 3684 2787 
Q 3425 2491 3425 1978 
L 3425 0 
L 2847 0 
L 2847 2094 
Q 2847 2600 2669 2842 
Q 2491 3084 2119 3084 
Q 1678 3084 1418 2786 
Q 1159 2488 1159 1978 
L 1159 0 
L 581 0 
L 581 3500 
L 1159 3500 
L 1159 2956 
Q 1356 3278 1631 3431 
Q 1906 3584 2284 3584 
Q 2666 3584 2933 3390 
Q 3200 3197 3328 2828 
z
" transform="scale(0.015625)"/>
       <path id="DejaVuSans-61" d="M 2194 1759 
Q 1497 1759 1228 1600 
Q 959 1441 959 1056 
Q 959 750 1161 570 
Q 1363 391 1709 391 
Q 2188 391 2477 730 
Q 2766 1069 2766 1631 
L 2766 1759 
L 2194 1759 
z
M 3341 1997 
L 3341 0 
L 2766 0 
L 2766 531 
Q 2569 213 2275 61 
Q 1981 -91 1556 -91 
Q 1019 -91 701 211 
Q 384 513 384 1019 
Q 384 1609 779 1909 
Q 1175 2209 1959 2209 
L 2766 2209 
L 2766 2266 
Q 2766 2663 2505 2880 
Q 2244 3097 1772 3097 
Q 1472 3097 1187 3025 
Q 903 2953 641 2809 
L 641 3341 
Q 956 3463 1253 3523 
Q 1550 3584 1831 3584 
Q 2591 3584 2966 3190 
Q 3341 2797 3341 1997 
z
" transform="scale(0.015625)"/>
       <path id="DejaVuSans-6c" d="M 603 4863 
L 1178 4863 
L 1178 0 
L 603 0 
L 603 4863 
z
" transform="scale(0.015625)"/>
       <path id="DejaVuSans-69" d="M 603 3500 
L 1178 3500 
L 1178 0 
L 603 0 
L 603 3500 
z
M 603 4863 
L 1178 4863 
L 1178 4134 
L 603 4134 
L 603 4863 
z
" transform="scale(0.015625)"/>
       <path id="DejaVuSans-7a" d="M 353 3500 
L 3084 3500 
L 3084 2975 
L 922 459 
L 3084 459 
L 3084 0 
L 275 0 
L 275 525 
L 2438 3041 
L 353 3041 
L 353 3500 
z
" transform="scale(0.015625)"/>
       <path id="DejaVuSans-65" d="M 3597 1894 
L 3597 1613 
L 953 1613 
Q 991 1019 1311 708 
Q 1631 397 2203 397 
Q 2534 397 2845 478 
Q 3156 559 3463 722 
L 3463 178 
Q 3153 47 2828 -22 
Q 2503 -91 2169 -91 
Q 1331 -91 842 396 
Q 353 884 353 1716 
Q 353 2575 817 3079 
Q 1281 3584 2069 3584 
Q 2775 3584 3186 3129 
Q 3597 2675 3597 1894 
z
M 3022 2063 
Q 3016 2534 2758 2815 
Q 2500 3097 2075 3097 
Q 1594 3097 1305 2825 
Q 1016 2553 972 2059 
L 3022 2063 
z
" transform="scale(0.015625)"/>
       <path id="DejaVuSans-64" d="M 2906 2969 
L 2906 4863 
L 3481 4863 
L 3481 0 
L 2906 0 
L 2906 525 
Q 2725 213 2448 61 
Q 2172 -91 1784 -91 
Q 1150 -91 751 415 
Q 353 922 353 1747 
Q 353 2572 751 3078 
Q 1150 3584 1784 3584 
Q 2172 3584 2448 3432 
Q 2725 3281 2906 2969 
z
M 947 1747 
Q 947 1113 1208 752 
Q 1469 391 1925 391 
Q 2381 391 2643 752 
Q 2906 1113 2906 1747 
Q 2906 2381 2643 2742 
Q 2381 3103 1925 3103 
Q 1469 3103 1208 2742 
Q 947 2381 947 1747 
z
" transform="scale(0.015625)"/>
       <path id="DejaVuSans-20" transform="scale(0.015625)"/>
       <path id="DejaVuSans-45" d="M 628 4666 
L 3578 4666 
L 3578 4134 
L 1259 4134 
L 1259 2753 
L 3481 2753 
L 3481 2222 
L 1259 2222 
L 1259 531 
L 3634 531 
L 3634 0 
L 628 0 
L 628 4666 
z
" transform="scale(0.015625)"/>
       <path id="DejaVuSans-78" d="M 3513 3500 
L 2247 1797 
L 3578 0 
L 2900 0 
L 1881 1375 
L 863 0 
L 184 0 
L 1544 1831 
L 300 3500 
L 978 3500 
L 1906 2253 
L 2834 3500 
L 3513 3500 
z
" transform="scale(0.015625)"/>
       <path id="DejaVuSans-63" d="M 3122 3366 
L 3122 2828 
Q 2878 2963 2633 3030 
Q 2388 3097 2138 3097 
Q 1578 3097 1268 2742 
Q 959 2388 959 1747 
Q 959 1106 1268 751 
Q 1578 397 2138 397 
Q 2388 397 2633 464 
Q 2878 531 3122 666 
L 3122 134 
Q 2881 22 2623 -34 
Q 2366 -91 2075 -91 
Q 1284 -91 818 406 
Q 353 903 353 1747 
Q 353 2603 823 3093 
Q 1294 3584 2113 3584 
Q 2378 3584 2631 3529 
Q 2884 3475 3122 3366 
z
" transform="scale(0.015625)"/>
       <path id="DejaVuSans-75" d="M 544 1381 
L 544 3500 
L 1119 3500 
L 1119 1403 
Q 1119 906 1312 657 
Q 1506 409 1894 409 
Q 2359 409 2629 706 
Q 2900 1003 2900 1516 
L 2900 3500 
L 3475 3500 
L 3475 0 
L 2900 0 
L 2900 538 
Q 2691 219 2414 64 
Q 2138 -91 1772 -91 
Q 1169 -91 856 284 
Q 544 659 544 1381 
z
M 1991 3584 
L 1991 3584 
z
" transform="scale(0.015625)"/>
       <path id="DejaVuSans-74" d="M 1172 4494 
L 1172 3500 
L 2356 3500 
L 2356 3053 
L 1172 3053 
L 1172 1153 
Q 1172 725 1289 603 
Q 1406 481 1766 481 
L 2356 481 
L 2356 0 
L 1766 0 
Q 1100 0 847 248 
Q 594 497 594 1153 
L 594 3053 
L 172 3053 
L 172 3500 
L 594 3500 
L 594 4494 
L 1172 4494 
z
" transform="scale(0.015625)"/>
       <path id="DejaVuSans-6e" d="M 3513 2113 
L 3513 0 
L 2938 0 
L 2938 2094 
Q 2938 2591 2744 2837 
Q 2550 3084 2163 3084 
Q 1697 3084 1428 2787 
Q 1159 2491 1159 1978 
L 1159 0 
L 581 0 
L 581 3500 
L 1159 3500 
L 1159 2956 
Q 1366 3272 1645 3428 
Q 1925 3584 2291 3584 
Q 2894 3584 3203 3211 
Q 3513 2838 3513 2113 
z
" transform="scale(0.015625)"/>
       <path id="DejaVuSans-54" d="M -19 4666 
L 3928 4666 
L 3928 4134 
L 2272 4134 
L 2272 0 
L 1638 0 
L 1638 4134 
L -19 4134 
L -19 4666 
z
" transform="scale(0.015625)"/>
      </defs>
      <use xlink:href="#DejaVuSans-4e"/>
      <use xlink:href="#DejaVuSans-6f" x="74.804688"/>
      <use xlink:href="#DejaVuSans-72" x="135.986328"/>
      <use xlink:href="#DejaVuSans-6d" x="175.349609"/>
      <use xlink:href="#DejaVuSans-61" x="272.761719"/>
      <use xlink:href="#DejaVuSans-6c" x="334.041016"/>
      <use xlink:href="#DejaVuSans-69" x="361.824219"/>
      <use xlink:href="#DejaVuSans-7a" x="389.607422"/>
      <use xlink:href="#DejaVuSans-65" x="442.097656"/>
      <use xlink:href="#DejaVuSans-64" x="503.621094"/>
      <use xlink:href="#DejaVuSans-20" x="567.097656"/>
      <use xlink:href="#DejaVuSans-45" x="598.884766"/>
      <use xlink:href="#DejaVuSans-78" x="662.068359"/>
      <use xlink:href="#DejaVuSans-65" x="718.123047"/>
      <use xlink:href="#DejaVuSans-63" x="779.646484"/>
      <use xlink:href="#DejaVuSans-75" x="834.626953"/>
      <use xlink:href="#DejaVuSans-74" x="898.005859"/>
      <use xlink:href="#DejaVuSans-69" x="937.214844"/>
      <use xlink:href="#DejaVuSans-6f" x="964.998047"/>
      <use xlink:href="#DejaVuSans-6e" x="1026.179688"/>
      <use xlink:href="#DejaVuSans-20" x="1089.558594"/>
      <use xlink:href="#DejaVuSans-54" x="1121.345703"/>
      <use xlink:href="#DejaVuSans-69" x="1179.304688"/>
      <use xlink:href="#DejaVuSans-6d" x="1207.087891"/>
      <use xlink:href="#DejaVuSans-65" x="1304.5"/>
     </g>
    </g>
   </g>
   <g id="line2d_21">
    <path d="M 99.36 157.48006 
L 715.392 157.48006 
" clip-path="url(#p22a5608371)" style="fill: none; stroke-dasharray: 5.55,2.4; stroke-dashoffset: 0; stroke: #000000; stroke-opacity: 0.2; stroke-width: 1.5"/>
   </g>
   <g id="patch_108">
    <path d="M 99.36 164.0448 
L 99.36 22.1184 
" style="fill: none; stroke: #000000; stroke-width: 0.8; stroke-linejoin: miter; stroke-linecap: square"/>
   </g>
   <g id="patch_109">
    <path d="M 715.392 164.0448 
L 715.392 22.1184 
" style="fill: none; stroke: #000000; stroke-width: 0.8; stroke-linejoin: miter; stroke-linecap: square"/>
   </g>
   <g id="patch_110">
    <path d="M 99.36 164.0448 
L 715.392 164.0448 
" style="fill: none; stroke: #000000; stroke-width: 0.8; stroke-linejoin: miter; stroke-linecap: square"/>
   </g>
   <g id="patch_111">
    <path d="M 99.36 22.1184 
L 715.392 22.1184 
" style="fill: none; stroke: #000000; stroke-width: 0.8; stroke-linejoin: miter; stroke-linecap: square"/>
   </g>
   <g id="legend_1">
    <g id="patch_112">
     <path d="M 215.2445 40.2609 
L 709.792 40.2609 
Q 711.392 40.2609 711.392 38.6609 
L 711.392 27.7184 
Q 711.392 26.1184 709.792 26.1184 
L 215.2445 26.1184 
Q 213.6445 26.1184 213.6445 27.7184 
L 213.6445 38.6609 
Q 213.6445 40.2609 215.2445 40.2609 
z
" style="fill: #ffffff; opacity: 0.8; stroke: #cccccc; stroke-linejoin: miter"/>
    </g>
    <g id="patch_113">
     <path d="M 216.8445 35.39715 
L 232.8445 35.39715 
L 232.8445 29.79715 
L 216.8445 29.79715 
z
" style="fill: #808080"/>
    </g>
    <g id="text_22">
     <!-- FastCool -->
     <g transform="translate(239.2445 35.39715) scale(0.08 -0.08)">
      <defs>
       <path id="DejaVuSans-46" d="M 628 4666 
L 3309 4666 
L 3309 4134 
L 1259 4134 
L 1259 2759 
L 3109 2759 
L 3109 2228 
L 1259 2228 
L 1259 0 
L 628 0 
L 628 4666 
z
" transform="scale(0.015625)"/>
       <path id="DejaVuSans-73" d="M 2834 3397 
L 2834 2853 
Q 2591 2978 2328 3040 
Q 2066 3103 1784 3103 
Q 1356 3103 1142 2972 
Q 928 2841 928 2578 
Q 928 2378 1081 2264 
Q 1234 2150 1697 2047 
L 1894 2003 
Q 2506 1872 2764 1633 
Q 3022 1394 3022 966 
Q 3022 478 2636 193 
Q 2250 -91 1575 -91 
Q 1294 -91 989 -36 
Q 684 19 347 128 
L 347 722 
Q 666 556 975 473 
Q 1284 391 1588 391 
Q 1994 391 2212 530 
Q 2431 669 2431 922 
Q 2431 1156 2273 1281 
Q 2116 1406 1581 1522 
L 1381 1569 
Q 847 1681 609 1914 
Q 372 2147 372 2553 
Q 372 3047 722 3315 
Q 1072 3584 1716 3584 
Q 2034 3584 2315 3537 
Q 2597 3491 2834 3397 
z
" transform="scale(0.015625)"/>
       <path id="DejaVuSans-43" d="M 4122 4306 
L 4122 3641 
Q 3803 3938 3442 4084 
Q 3081 4231 2675 4231 
Q 1875 4231 1450 3742 
Q 1025 3253 1025 2328 
Q 1025 1406 1450 917 
Q 1875 428 2675 428 
Q 3081 428 3442 575 
Q 3803 722 4122 1019 
L 4122 359 
Q 3791 134 3420 21 
Q 3050 -91 2638 -91 
Q 1578 -91 968 557 
Q 359 1206 359 2328 
Q 359 3453 968 4101 
Q 1578 4750 2638 4750 
Q 3056 4750 3426 4639 
Q 3797 4528 4122 4306 
z
" transform="scale(0.015625)"/>
      </defs>
      <use xlink:href="#DejaVuSans-46"/>
      <use xlink:href="#DejaVuSans-61" x="48.394531"/>
      <use xlink:href="#DejaVuSans-73" x="109.673828"/>
      <use xlink:href="#DejaVuSans-74" x="161.773438"/>
      <use xlink:href="#DejaVuSans-43" x="200.982422"/>
      <use xlink:href="#DejaVuSans-6f" x="270.806641"/>
      <use xlink:href="#DejaVuSans-6f" x="331.988281"/>
      <use xlink:href="#DejaVuSans-6c" x="393.169922"/>
     </g>
    </g>
    <g id="patch_114">
     <path d="M 288.92075 35.39715 
L 304.92075 35.39715 
L 304.92075 29.79715 
L 288.92075 29.79715 
z
" style="fill: #0000ff"/>
    </g>
    <g id="text_23">
     <!-- RoundRobin -->
     <g transform="translate(311.32075 35.39715) scale(0.08 -0.08)">
      <defs>
       <path id="DejaVuSans-52" d="M 2841 2188 
Q 3044 2119 3236 1894 
Q 3428 1669 3622 1275 
L 4263 0 
L 3584 0 
L 2988 1197 
Q 2756 1666 2539 1819 
Q 2322 1972 1947 1972 
L 1259 1972 
L 1259 0 
L 628 0 
L 628 4666 
L 2053 4666 
Q 2853 4666 3247 4331 
Q 3641 3997 3641 3322 
Q 3641 2881 3436 2590 
Q 3231 2300 2841 2188 
z
M 1259 4147 
L 1259 2491 
L 2053 2491 
Q 2509 2491 2742 2702 
Q 2975 2913 2975 3322 
Q 2975 3731 2742 3939 
Q 2509 4147 2053 4147 
L 1259 4147 
z
" transform="scale(0.015625)"/>
       <path id="DejaVuSans-62" d="M 3116 1747 
Q 3116 2381 2855 2742 
Q 2594 3103 2138 3103 
Q 1681 3103 1420 2742 
Q 1159 2381 1159 1747 
Q 1159 1113 1420 752 
Q 1681 391 2138 391 
Q 2594 391 2855 752 
Q 3116 1113 3116 1747 
z
M 1159 2969 
Q 1341 3281 1617 3432 
Q 1894 3584 2278 3584 
Q 2916 3584 3314 3078 
Q 3713 2572 3713 1747 
Q 3713 922 3314 415 
Q 2916 -91 2278 -91 
Q 1894 -91 1617 61 
Q 1341 213 1159 525 
L 1159 0 
L 581 0 
L 581 4863 
L 1159 4863 
L 1159 2969 
z
" transform="scale(0.015625)"/>
      </defs>
      <use xlink:href="#DejaVuSans-52"/>
      <use xlink:href="#DejaVuSans-6f" x="64.982422"/>
      <use xlink:href="#DejaVuSans-75" x="126.164062"/>
      <use xlink:href="#DejaVuSans-6e" x="189.542969"/>
      <use xlink:href="#DejaVuSans-64" x="252.921875"/>
      <use xlink:href="#DejaVuSans-52" x="316.398438"/>
      <use xlink:href="#DejaVuSans-6f" x="381.380859"/>
      <use xlink:href="#DejaVuSans-62" x="442.5625"/>
      <use xlink:href="#DejaVuSans-69" x="506.039062"/>
      <use xlink:href="#DejaVuSans-6e" x="533.822266"/>
     </g>
    </g>
    <g id="patch_115">
     <path d="M 375.09825 35.39715 
L 391.09825 35.39715 
L 391.09825 29.79715 
L 375.09825 29.79715 
z
" style="fill: #ffa500"/>
    </g>
    <g id="text_24">
     <!-- Alternation -->
     <g transform="translate(397.49825 35.39715) scale(0.08 -0.08)">
      <defs>
       <path id="DejaVuSans-41" d="M 2188 4044 
L 1331 1722 
L 3047 1722 
L 2188 4044 
z
M 1831 4666 
L 2547 4666 
L 4325 0 
L 3669 0 
L 3244 1197 
L 1141 1197 
L 716 0 
L 50 0 
L 1831 4666 
z
" transform="scale(0.015625)"/>
      </defs>
      <use xlink:href="#DejaVuSans-41"/>
      <use xlink:href="#DejaVuSans-6c" x="68.408203"/>
      <use xlink:href="#DejaVuSans-74" x="96.191406"/>
      <use xlink:href="#DejaVuSans-65" x="135.400391"/>
      <use xlink:href="#DejaVuSans-72" x="196.923828"/>
      <use xlink:href="#DejaVuSans-6e" x="236.287109"/>
      <use xlink:href="#DejaVuSans-61" x="299.666016"/>
      <use xlink:href="#DejaVuSans-74" x="360.945312"/>
      <use xlink:href="#DejaVuSans-69" x="400.154297"/>
      <use xlink:href="#DejaVuSans-6f" x="427.9375"/>
      <use xlink:href="#DejaVuSans-6e" x="489.119141"/>
     </g>
    </g>
    <g id="patch_116">
     <path d="M 457.697 35.39715 
L 473.697 35.39715 
L 473.697 29.79715 
L 457.697 29.79715 
z
" style="fill: #008000"/>
    </g>
    <g id="text_25">
     <!-- MFU -->
     <g transform="translate(480.097 35.39715) scale(0.08 -0.08)">
      <defs>
       <path id="DejaVuSans-4d" d="M 628 4666 
L 1569 4666 
L 2759 1491 
L 3956 4666 
L 4897 4666 
L 4897 0 
L 4281 0 
L 4281 4097 
L 3078 897 
L 2444 897 
L 1241 4097 
L 1241 0 
L 628 0 
L 628 4666 
z
" transform="scale(0.015625)"/>
       <path id="DejaVuSans-55" d="M 556 4666 
L 1191 4666 
L 1191 1831 
Q 1191 1081 1462 751 
Q 1734 422 2344 422 
Q 2950 422 3222 751 
Q 3494 1081 3494 1831 
L 3494 4666 
L 4128 4666 
L 4128 1753 
Q 4128 841 3676 375 
Q 3225 -91 2344 -91 
Q 1459 -91 1007 375 
Q 556 841 556 1753 
L 556 4666 
z
" transform="scale(0.015625)"/>
      </defs>
      <use xlink:href="#DejaVuSans-4d"/>
      <use xlink:href="#DejaVuSans-46" x="86.279297"/>
      <use xlink:href="#DejaVuSans-55" x="143.798828"/>
     </g>
    </g>
    <g id="patch_117">
     <path d="M 513.45575 35.39715 
L 529.45575 35.39715 
L 529.45575 29.79715 
L 513.45575 29.79715 
z
" style="fill: #a52a2a"/>
    </g>
    <g id="text_26">
     <!-- TemPo -->
     <g transform="translate(535.85575 35.39715) scale(0.08 -0.08)">
      <defs>
       <path id="DejaVuSans-50" d="M 1259 4147 
L 1259 2394 
L 2053 2394 
Q 2494 2394 2734 2622 
Q 2975 2850 2975 3272 
Q 2975 3691 2734 3919 
Q 2494 4147 2053 4147 
L 1259 4147 
z
M 628 4666 
L 2053 4666 
Q 2838 4666 3239 4311 
Q 3641 3956 3641 3272 
Q 3641 2581 3239 2228 
Q 2838 1875 2053 1875 
L 1259 1875 
L 1259 0 
L 628 0 
L 628 4666 
z
" transform="scale(0.015625)"/>
      </defs>
      <use xlink:href="#DejaVuSans-54"/>
      <use xlink:href="#DejaVuSans-65" x="44.083984"/>
      <use xlink:href="#DejaVuSans-6d" x="105.607422"/>
      <use xlink:href="#DejaVuSans-50" x="203.019531"/>
      <use xlink:href="#DejaVuSans-6f" x="259.697266"/>
     </g>
    </g>
    <g id="patch_118">
     <path d="M 577.52575 35.39715 
L 593.52575 35.39715 
L 593.52575 29.79715 
L 577.52575 29.79715 
z
" style="fill: #00ffff"/>
    </g>
    <g id="text_27">
     <!-- TemPoE -->
     <g transform="translate(599.92575 35.39715) scale(0.08 -0.08)">
      <use xlink:href="#DejaVuSans-54"/>
      <use xlink:href="#DejaVuSans-65" x="44.083984"/>
      <use xlink:href="#DejaVuSans-6d" x="105.607422"/>
      <use xlink:href="#DejaVuSans-50" x="203.019531"/>
      <use xlink:href="#DejaVuSans-6f" x="259.697266"/>
      <use xlink:href="#DejaVuSans-45" x="320.878906"/>
     </g>
    </g>
    <g id="patch_119">
     <path d="M 646.65075 35.39715 
L 662.65075 35.39715 
L 662.65075 29.79715 
L 646.65075 29.79715 
z
" style="fill: #ff0000"/>
    </g>
    <g id="text_28">
     <!-- NoDPBTM -->
     <g transform="translate(669.05075 35.39715) scale(0.08 -0.08)">
      <defs>
       <path id="DejaVuSans-44" d="M 1259 4147 
L 1259 519 
L 2022 519 
Q 2988 519 3436 956 
Q 3884 1394 3884 2338 
Q 3884 3275 3436 3711 
Q 2988 4147 2022 4147 
L 1259 4147 
z
M 628 4666 
L 1925 4666 
Q 3281 4666 3915 4102 
Q 4550 3538 4550 2338 
Q 4550 1131 3912 565 
Q 3275 0 1925 0 
L 628 0 
L 628 4666 
z
" transform="scale(0.015625)"/>
       <path id="DejaVuSans-42" d="M 1259 2228 
L 1259 519 
L 2272 519 
Q 2781 519 3026 730 
Q 3272 941 3272 1375 
Q 3272 1813 3026 2020 
Q 2781 2228 2272 2228 
L 1259 2228 
z
M 1259 4147 
L 1259 2741 
L 2194 2741 
Q 2656 2741 2882 2914 
Q 3109 3088 3109 3444 
Q 3109 3797 2882 3972 
Q 2656 4147 2194 4147 
L 1259 4147 
z
M 628 4666 
L 2241 4666 
Q 2963 4666 3353 4366 
Q 3744 4066 3744 3513 
Q 3744 3084 3544 2831 
Q 3344 2578 2956 2516 
Q 3422 2416 3680 2098 
Q 3938 1781 3938 1306 
Q 3938 681 3513 340 
Q 3088 0 2303 0 
L 628 0 
L 628 4666 
z
" transform="scale(0.015625)"/>
      </defs>
      <use xlink:href="#DejaVuSans-4e"/>
      <use xlink:href="#DejaVuSans-6f" x="74.804688"/>
      <use xlink:href="#DejaVuSans-44" x="135.986328"/>
      <use xlink:href="#DejaVuSans-50" x="212.988281"/>
      <use xlink:href="#DejaVuSans-42" x="273.291016"/>
      <use xlink:href="#DejaVuSans-54" x="341.894531"/>
      <use xlink:href="#DejaVuSans-4d" x="402.978516"/>
     </g>
    </g>
   </g>
  </g>
 </g>
 <defs>
  <clipPath id="p22a5608371">
   <rect x="99.36" y="22.1184" width="616.032" height="141.9264"/>
  </clipPath>
 </defs>
</svg>
